<svg width="78" height="72" viewBox="0 0 78 72" fill="none" xmlns="http://www.w3.org/2000/svg">
<path d="M0 23.5709C0 40.3441 14.5675 56.7955 36.5387 71.1151C37.2591 71.5575 38.2596 72 38.98 72C39.7004 72 40.7009 71.5575 41.4613 71.1151C63.4325 56.7955 78 40.3441 78 23.5709C78 9.81453 68.5552 0 55.9487 0C48.705 0 42.4218 3.74078 38.98 9.53296C35.5782 3.78101 29.255 0 22.0113 0C9.40482 0 0 9.81453 0 23.5709ZM4.92252 23.5709C4.92252 12.5095 12.1662 4.98771 21.9713 4.98771C29.4151 4.98771 34.0174 9.61341 36.7789 14.2391C37.6193 15.5665 38.1796 15.9687 38.98 15.9687C39.7804 15.9687 40.3007 15.5263 41.2211 14.2391C44.0626 9.65363 48.5849 4.98771 55.9887 4.98771C65.7937 4.98771 73.0375 12.5095 73.0375 23.5709C73.0375 38.6548 57.3894 54.5832 39.7004 66.4492C39.3802 66.6503 39.1401 66.8112 38.98 66.8112C38.8199 66.8112 38.6198 66.6503 38.2996 66.4492C20.6106 54.5832 4.92252 38.6548 4.92252 23.5709Z" fill="url(#paint0_linear)"/>
<defs>
<linearGradient id="paint0_linear" x1="78" y1="72" x2="-1.73126" y2="70.0289" gradientUnits="userSpaceOnUse">
<stop stop-color="#FB9F6C"/>
<stop offset="1" stop-color="#FF7F63"/>
</linearGradient>
</defs>
</svg>
