<svg width="48" height="72" viewBox="0 0 48 72" fill="none" xmlns="http://www.w3.org/2000/svg">
<path d="M12.9169 56.6937H35.0831C35.9123 56.6937 36.4545 56.1232 36.4545 55.2676V50.5775C36.4545 42.4648 48 37.743 48 23.6408C48 9.44366 38.4 0 24.0159 0C9.6 0 0 9.44366 0 23.6408C0 37.743 11.5455 42.4648 11.5455 50.5775V55.2676C11.5455 56.1232 12.0877 56.6937 12.9169 56.6937ZM15.2452 50.7042C15.2452 41.3556 3.73156 36.1901 3.73156 23.6725C3.73156 11.662 11.8326 3.70775 24.0159 3.70775C36.1674 3.70775 44.2684 11.662 44.2684 23.6725C44.2684 36.1901 32.7548 41.3556 32.7548 50.7042V52.9859H15.2452V50.7042ZM14.1608 64.5211H33.8392C35.3063 64.5211 36.4545 63.3486 36.4545 61.8592C36.4545 60.3697 35.3063 59.2289 33.8392 59.2289H14.1608C12.6937 59.2289 11.5455 60.3697 11.5455 61.8592C11.5455 63.3486 12.6937 64.5211 14.1608 64.5211ZM24.0159 72C28.2897 72 31.3196 70.0352 31.6385 67.0563H16.3615C16.6485 70.0352 19.6784 72 24.0159 72Z" fill="url(#paint0_linear)"/>
<defs>
<linearGradient id="paint0_linear" x1="48" y1="72" x2="-1.08402" y2="71.2533" gradientUnits="userSpaceOnUse">
<stop stop-color="#FB9F6C"/>
<stop offset="1" stop-color="#FF7F63"/>
</linearGradient>
</defs>
</svg>
