<svg width="83" height="72" viewBox="0 0 83 72" fill="none" xmlns="http://www.w3.org/2000/svg">
<path d="M12.6318 42.9483C12.6318 46.576 14.8808 50.1728 19.0401 53.0626V56.8747C17.5304 57.2743 16.637 58.504 16.637 60.2871V68.4646C16.637 70.6473 18.0234 72 20.2108 72H21.0427C23.2301 72 24.6166 70.6473 24.6166 68.4646V60.2871C24.6166 58.504 23.7231 57.2743 22.2134 56.8747V54.9072C27.0813 57.3358 33.6128 58.8729 41.5 58.8729C59.3385 58.8729 70.3682 50.9106 70.3682 42.9483V28.4072L80.3504 23.8265C82.1065 23.0272 83 21.5208 83 19.9222C83 18.3544 82.1065 16.8172 80.3504 16.0179L49.7877 2.06084C46.5219 0.585202 44.0264 -0.0296474 41.5 0.00109506C38.9736 -0.0296474 36.4781 0.585202 33.2123 2.06084L2.61878 16.0179C0.893467 16.8172 0 18.3544 0 19.9222C0 21.5208 0.893467 23.0272 2.61878 23.8265L12.6318 28.4072V42.9483ZM41.5 36.1235C39.3742 36.1235 37.3716 35.6316 34.6604 34.3712L24.6782 29.8213L38.6656 22.7813C39.5282 23.0272 40.5449 23.1502 41.5616 23.1502C44.9506 23.1502 47.8775 21.6745 47.8775 19.9222C47.8775 18.2006 44.9506 16.725 41.5616 16.725C38.2034 16.725 35.2457 18.2006 35.2457 19.9222C35.2457 20.3219 35.3998 20.7215 35.6771 21.0597L21.2892 28.2842L5.42242 21.029C4.83705 20.783 4.55976 20.3834 4.55976 19.9222C4.55976 19.4918 4.83705 19.0614 5.42242 18.8155L34.6604 5.47326C37.3716 4.24356 39.3742 3.75168 41.5 3.75168C43.6258 3.75168 45.6284 4.24356 48.3396 5.47326L77.5776 18.8155C78.1321 19.0614 78.4402 19.4918 78.4402 19.9222C78.4402 20.3834 78.1321 20.783 77.5776 21.029L48.3396 34.3712C45.6284 35.6316 43.6258 36.1235 41.5 36.1235ZM16.4213 42.9483V30.1287L19.0401 31.3277V48.3283C17.3456 46.6067 16.4213 44.7314 16.4213 42.9483ZM41.5 39.8433C44.0264 39.9048 46.5219 39.29 49.7877 37.7836L66.5479 30.1287V42.9483C66.5479 48.7587 57.0587 55.2761 41.5 55.2761C33.1507 55.2761 26.5575 53.4008 22.2134 50.7569V32.7726L33.2123 37.7836C36.4781 39.29 38.9736 39.9048 41.5 39.8433Z" fill="url(#paint0_linear)"/>
<defs>
<linearGradient id="paint0_linear" x1="83" y1="72" x2="-1.83539" y2="69.7682" gradientUnits="userSpaceOnUse">
<stop stop-color="#FB9F6C"/>
<stop offset="1" stop-color="#FF7F63"/>
</linearGradient>
</defs>
</svg>
